<svg width="158" height="54" viewBox="0 0 158 54" fill="none" xmlns="http://www.w3.org/2000/svg">
  <g id="full">
    <g id="Logo Kabum">
      <path fill-rule="evenodd" clip-rule="evenodd"
        d="M27.0863 41.4307C23.9586 41.9794 20.3674 39.3234 19.8188 36.2321C19.3268 33.4567 18.7074 30.6934 17.9219 27.9827C16.3591 30.0658 15.442 31.8776 14.525 34.4547C13.3771 37.6796 11.3669 40.3497 7.8121 40.953C6.47397 41.1797 5.16015 41.0684 3.83012 40.87L0.5 40.372L1.44741 37.1411C4.71276 25.9887 8.68461 14.0833 14.2841 3.87832C15.5291 1.60897 18.1021 -0.31622 20.7864 0.760756C23.3412 1.78712 23.8149 4.61114 23.3493 7.02017C23.2784 7.38658 23.2015 7.753 23.1185 8.11536C26.6005 5.10104 30.3699 2.46327 34.613 0.552244C36.6799 -0.378975 39.0849 -0.208928 40.5829 1.65149C42.2794 3.7609 41.7976 6.90275 39.7448 8.58907C38.8136 9.35429 37.9229 10.1053 37.0908 10.8584C35.9754 11.907 37.5929 12.3403 38.8055 11.5771C40.5505 10.6114 42.4352 9.93934 43.9272 9.59519C47.4861 8.77126 51.4397 8.96561 54.3731 11.2289C54.5877 10.579 54.8022 9.93326 55.0168 9.29153C55.8084 6.91895 56.6201 4.55244 57.4299 2.1839L58.1182 0.171658L60.2438 0.197976C64.0577 0.244537 67.8737 0.430777 71.6897 0.384216C76.2689 0.329558 82.8259 0.969265 83.7955 6.56468C83.9777 7.61534 84.0506 8.61336 84.0223 9.56685C85.1701 9.34619 86.3766 9.50612 87.5164 10.2147C89.3727 11.3686 90.0266 13.476 89.729 15.5469C89.3403 17.5389 90.8971 17.4235 91.4639 15.5894C92.1401 14.0165 92.9559 12.5751 93.956 11.6277C95.7354 9.94136 98.3732 8.8401 100.634 10.3584C100.726 10.4191 100.815 10.4839 100.898 10.5507C101.697 8.8988 102.535 7.26714 103.416 5.65573C105.086 2.60497 108.366 -0.249416 112.076 1.08871C115.17 2.20212 116.24 5.50997 116.038 8.52834C115.927 10.1924 115.823 11.8564 115.726 13.5225C117.546 10.577 119.33 7.60724 121.131 4.64961C121.725 3.67588 122.536 2.83373 123.451 2.15961C127.002 -0.461975 131.292 -0.166413 133.033 2.64749C135.085 0.276928 139.029 -0.257511 141.426 1.94503C143.033 3.42081 143.325 5.5707 142.685 7.58295C141.361 11.7491 139.922 16.134 138.142 20.3245C139.44 20.618 141.019 21.3549 142.555 22.2598C143.495 21.2698 144.918 20.948 146.327 20.9844C149.206 21.0593 154.489 24.6728 156.477 26.764C157.465 27.8026 158.034 29.1144 157.902 30.5618C157.564 34.2543 153.285 35.9629 150.428 37.4022C147.934 38.6614 145.357 40.1372 142.756 41.1291C142.114 41.3741 141.472 41.453 140.871 41.3903C141.566 42.3903 141.974 43.6009 141.974 44.9026C141.974 49.7571 138.003 53.7309 133.146 53.7309H30.7808C27.3819 53.7309 24.6024 50.9494 24.6024 47.5525C24.6004 45.1819 25.5498 43.0219 27.0863 41.4307Z"
        fill="white" />
      <path fill-rule="evenodd" clip-rule="evenodd"
        d="M125.701 31.9746C127.573 30.1952 130.662 31.8815 129.913 33.6124C129.774 35.6732 128.415 36.8899 126.636 37.6389C125.419 37.9668 124.154 38.5276 123.312 37.4526C122.8 35.578 124.298 33.4241 125.701 31.9746ZM93.3063 38.6207C96.8652 27.6667 100.375 16.7107 105.993 7.06857C108.708 1.77884 113.483 3.04206 113.109 8.33179C112.874 12.0303 112.688 15.7755 112.453 19.474C112.36 21.5814 114.232 21.3 115.214 19.8485C118.024 15.2613 120.832 10.7206 123.64 6.17986C125.605 2.90237 132.3 1.45089 130.709 7.11513C128.976 16.899 125.794 26.1687 121.581 35.2035C120.646 37.9648 117.04 38.9952 117.601 35.7643C118.864 30.8956 120.176 25.9804 121.486 21.1583C122.188 18.2088 120.269 19.7534 118.49 23.1706C116.243 27.1971 114.558 30.8956 111.795 35.0618C108.471 40.0236 105.24 39.8374 105.335 34.4059C105.57 30.9888 105.849 27.5716 106.131 24.1544C106.459 20.4093 105.568 19.8 104.023 23.8265C99.5333 37.2178 96.3024 39.1369 93.3063 38.6207ZM62.8777 23.0795C61.9424 23.9682 61.24 26.4501 60.7238 30.3814C60.7238 31.6933 61.1914 32.254 62.0821 32.3937C63.5336 32.4402 65.4062 32.5334 66.8111 32.4402C73.4126 32.2054 76.5484 23.6868 70.1817 23.1706C67.5581 23.126 65.4993 23.126 62.8777 23.0795ZM68.0278 9.26908C66.9508 9.26908 65.8738 13.0608 65.7807 15.401C65.5459 17.2735 67.4184 17.0387 68.7768 17.0852C73.364 17.2249 75.4249 15.6803 76.8278 13.1053C77.9513 10.4837 77.2954 9.2205 74.2993 9.2205C72.1939 9.22252 70.1331 9.26908 68.0278 9.26908ZM60.2096 3.1372C56.6527 13.5304 53.0938 24.7192 51.7355 33.8006C51.361 38.2482 52.7659 38.7159 55.5737 38.7159C58.335 38.6693 61.1448 38.6227 63.9527 38.6227C67.6978 38.3413 71.2081 36.7967 74.2993 33.2399C74.8135 32.6791 75.2832 32.9119 75.2346 33.333C75.2346 37.4061 78.7914 41.6654 85.814 36.5639C87.3587 35.7683 87.7797 35.8615 87.8263 36.7502C87.8728 37.313 87.64 37.9668 87.4518 38.4831C91.3366 38.811 95.3165 30.758 99.5759 14.9819C99.8107 12.5952 98.2175 11.6113 95.9704 13.7653C93.0674 16.48 91.8508 27.0614 88.9944 30.6183C85.061 36.4222 81.2693 33.1002 82.0183 30.4321C83.656 23.1281 85.5752 21.8648 86.7939 15.2653C87.3566 11.9878 83.9374 11.3805 81.8786 14.5629C80.6154 16.8565 79.6316 19.3384 78.9291 21.8669C77.9938 24.2536 76.6355 24.0208 76.2609 22.6624C76.0727 21.4458 75.2771 20.5085 74.2953 19.6663C78.5546 16.6702 81.6924 13.0183 80.8968 7.07262C80.2875 4.2162 76.9169 3.14125 71.7223 3.3275C67.886 3.27689 64.0478 3.18376 60.2096 3.1372ZM45.6036 26.8246C44.6683 26.4966 42.3261 27.4339 40.7815 28.4623C38.0668 30.5211 38.253 31.5981 38.6275 33.003C39.2369 34.5011 42.2795 34.1266 44.5266 31.7398C46.6785 29.2113 46.8668 27.3853 45.6036 26.8246ZM41.3422 19.802C40.7329 21.1603 36.1922 19.8485 36.6619 17.976C36.8967 14.4171 47.9903 9.45533 53.187 14.0912C56.7924 18.1643 48.5066 29.3065 48.5997 37.1227C48.6462 37.9182 48.0855 38.2928 47.1482 38.3393C46.1643 38.3393 45.1825 38.3393 44.1987 38.3393C43.2634 38.3859 42.5609 37.73 41.9516 36.7947C39.3766 39.1349 31.7466 40.1653 30.8559 36.0457C30.1534 32.5354 30.0603 29.679 34.8824 25.9804C37.6923 24.0613 41.156 23.452 45.6967 22.6098C47.6158 21.8142 48.5531 18.8647 46.6806 18.0691C44.48 17.0407 42.8403 18.1177 41.3422 19.802ZM4.26555 37.9668C7.77584 25.9824 11.6627 14.2329 16.8593 5.29116C18.3108 2.4813 21.2137 2.71613 20.4647 6.46125C20.0436 8.70833 19.4343 10.8623 18.6853 12.9676C18.2176 14.5588 19.4343 15.6358 21.5883 13.5304C26.7383 8.47349 31.3256 5.52598 35.8197 3.23235C38.6761 2.10881 39.4251 4.96523 37.8805 6.32157C31.4207 11.2834 25.8496 16.8545 28.0501 27.0594C28.5177 30.009 28.8457 32.9119 28.5177 35.8615C27.4408 40.7767 23.0397 37.8737 22.7138 35.7218C22.0579 32.4909 21.402 29.2154 20.4202 26.0776C19.6712 23.5957 17.9383 23.0815 15.9726 25.7031C14.3349 27.7153 12.8834 29.4948 11.7598 33.4747C9.65042 38.3413 7.0754 38.3879 4.26555 37.9668ZM127.855 27.9016C127.761 29.5393 129.166 30.0555 130.99 27.6667C134.361 21.7211 137.264 14.6054 139.886 6.69406C141.009 2.9955 136.14 2.52786 134.924 5.05633C132.442 9.45533 130.148 17.7897 127.855 27.9016Z"
        fill="#175FAD" />
      <path
        d="M133.199 50.6257L134.019 47.5972C134.128 47.1984 134.27 46.8279 134.442 46.4878C134.612 46.1457 134.806 45.8481 135.025 45.5931C135.245 45.338 135.474 45.1376 135.719 44.9959C135.962 44.8542 136.211 44.7813 136.464 44.7793C136.535 44.7793 136.596 44.7813 136.648 44.7894C136.699 44.7934 136.745 44.8015 136.788 44.8076L137.112 43.6476C137.063 43.6416 137.007 43.6334 136.948 43.6294C136.889 43.6213 136.831 43.6193 136.774 43.6193C136.466 43.6213 136.175 43.6942 135.905 43.8359C135.634 43.9796 135.381 44.174 135.152 44.4189C134.922 44.6659 134.719 44.9473 134.541 45.2611H134.498C134.563 44.9999 134.62 44.7469 134.671 44.5019C134.725 44.257 134.774 44.0161 134.82 43.7752H133.788C133.741 43.9897 133.691 44.2286 133.636 44.4918C133.581 44.7529 133.521 45.0323 133.454 45.3218C133.387 45.6153 133.312 45.9089 133.231 46.2085L132.025 50.6237H133.199V50.6257ZM127.292 47.2571C127.413 46.8522 127.569 46.4858 127.759 46.1599C127.952 45.834 128.166 45.5546 128.403 45.3198C128.64 45.089 128.889 44.9088 129.148 44.7833C129.407 44.6578 129.664 44.595 129.921 44.595C130.154 44.5971 130.348 44.6416 130.506 44.7286C130.666 44.8157 130.79 44.9372 130.881 45.089C130.972 45.2408 131.033 45.4149 131.065 45.6072C131.095 45.8036 131.102 46.006 131.083 46.2206C131.057 46.5303 130.988 46.8502 130.877 47.1863C130.763 47.5203 130.616 47.8462 130.429 48.162C130.243 48.4778 130.022 48.7633 129.769 49.0183C129.516 49.2734 129.235 49.4758 128.925 49.6277C128.618 49.7775 128.286 49.8564 127.931 49.8585C127.571 49.8585 127.302 49.7714 127.13 49.6013C126.958 49.4293 126.885 49.1823 126.911 48.8544C126.919 48.6722 126.939 48.5102 126.968 48.3685C126.996 48.2268 127.03 48.0952 127.069 47.9778L127.292 47.2571ZM128.008 40.5766L125.917 47.9495C125.868 48.1155 125.822 48.2936 125.783 48.4819C125.743 48.6701 125.715 48.8523 125.7 49.0244C125.67 49.4414 125.733 49.7815 125.893 50.0386C126.055 50.2977 126.29 50.486 126.595 50.6055C126.901 50.7229 127.255 50.7816 127.662 50.7795C128.12 50.7775 128.549 50.7087 128.948 50.5771C129.348 50.4455 129.715 50.2633 130.051 50.0305C130.385 49.7977 130.684 49.5285 130.954 49.2208C131.221 48.9131 131.448 48.5851 131.64 48.2369C131.834 47.8847 131.988 47.5264 132.102 47.162C132.215 46.7956 132.288 46.4352 132.318 46.0809C132.344 45.7712 132.334 45.4757 132.284 45.1821C132.233 44.8926 132.134 44.6274 131.992 44.3926C131.846 44.1598 131.65 43.9695 131.397 43.8339C131.146 43.6942 130.834 43.6213 130.46 43.6193C130.15 43.6193 129.848 43.6739 129.551 43.7772C129.251 43.8845 128.966 44.0383 128.69 44.2489C128.419 44.4554 128.168 44.7124 127.937 45.0202H127.909L129.188 40.5766H128.008ZM123.723 50.7674C123.901 50.7654 124.057 50.7229 124.198 50.6419C124.338 50.5589 124.449 50.4475 124.538 50.3079C124.625 50.1682 124.676 50.0103 124.694 49.8342C124.708 49.6722 124.686 49.5265 124.632 49.4009C124.579 49.2734 124.496 49.1722 124.383 49.0993C124.271 49.0264 124.132 48.988 123.972 48.9859C123.793 48.988 123.638 49.0305 123.496 49.1155C123.356 49.2005 123.243 49.3139 123.156 49.4556C123.069 49.5993 123.018 49.7572 123 49.9334C122.986 50.0913 123.008 50.233 123.063 50.3585C123.115 50.484 123.196 50.5832 123.306 50.6561C123.417 50.7289 123.551 50.7674 123.706 50.7694H123.723V50.7674ZM113.467 50.6257L114.392 47.1863C114.493 46.8178 114.633 46.4777 114.813 46.168C114.993 45.8542 115.196 45.5809 115.423 45.3441C115.647 45.1113 115.88 44.927 116.117 44.7975C116.356 44.6659 116.587 44.5991 116.803 44.5971C117.089 44.5991 117.299 44.6578 117.437 44.7712C117.575 44.8845 117.664 45.0303 117.698 45.2084C117.734 45.3886 117.745 45.5748 117.724 45.7732C117.714 45.9048 117.694 46.0405 117.67 46.1741C117.645 46.3077 117.611 46.4555 117.57 46.6093L116.469 50.6277H117.601L118.546 47.1174C118.652 46.7328 118.793 46.3886 118.971 46.0789C119.147 45.7692 119.346 45.504 119.565 45.2833C119.783 45.0607 120.01 44.8946 120.243 44.7752C120.473 44.6578 120.696 44.595 120.911 44.595C121.166 44.595 121.362 44.6436 121.508 44.7428C121.65 44.84 121.747 44.9756 121.801 45.1538C121.852 45.3299 121.868 45.5404 121.846 45.7834C121.834 45.9271 121.812 46.0789 121.779 46.2328C121.747 46.3907 121.71 46.5364 121.672 46.6741L120.605 50.6237H121.751L122.854 46.5769C122.889 46.4473 122.921 46.3158 122.949 46.1761C122.978 46.0364 123 45.9028 123.022 45.7712C123.042 45.6416 123.057 45.5242 123.067 45.4169C123.091 45.0971 123.065 44.8197 122.988 44.591C122.911 44.3643 122.795 44.178 122.646 44.0343C122.498 43.8905 122.326 43.7873 122.138 43.7185C121.945 43.6517 121.749 43.6193 121.548 43.6193C121.036 43.6254 120.554 43.761 120.109 44.0181C119.66 44.2752 119.263 44.6517 118.915 45.1477C118.921 44.8582 118.874 44.595 118.773 44.3663C118.672 44.1375 118.512 43.9553 118.295 43.8237C118.075 43.6901 117.793 43.6213 117.445 43.6193C116.989 43.6193 116.544 43.7387 116.111 43.9796C115.68 44.2205 115.283 44.5809 114.919 45.0627H114.876L115.168 43.7752H114.135C114.076 44.0586 114.008 44.3643 113.929 44.6983C113.852 45.0303 113.759 45.3886 113.657 45.7712L112.329 50.6257H113.467ZM108.631 49.8483C108.303 49.8463 108.028 49.7613 107.803 49.5973C107.578 49.4313 107.414 49.2066 107.307 48.9171C107.202 48.6296 107.163 48.2956 107.191 47.9211C107.218 47.6053 107.283 47.2875 107.386 46.9676C107.487 46.6498 107.623 46.3441 107.787 46.0566C107.953 45.7672 108.145 45.5101 108.364 45.2854C108.582 45.0586 108.825 44.8825 109.086 44.7489C109.349 44.6193 109.629 44.5525 109.924 44.5505C110.23 44.5525 110.483 44.6173 110.677 44.7367C110.876 44.8582 111.024 45.0161 111.131 45.2084C111.234 45.4028 111.305 45.6072 111.341 45.8279C111.376 46.0465 111.384 46.2571 111.364 46.4595C111.337 46.7834 111.269 47.1033 111.163 47.4251C111.058 47.749 110.92 48.0527 110.748 48.3422C110.578 48.6297 110.384 48.8867 110.161 49.1135C109.943 49.3382 109.704 49.5143 109.447 49.6439C109.19 49.7734 108.922 49.8402 108.645 49.8423H108.631V49.8483ZM108.424 50.7816C108.884 50.7795 109.317 50.6965 109.722 50.5366C110.125 50.3767 110.495 50.154 110.827 49.8746C111.159 49.5933 111.451 49.2693 111.702 48.9029C111.953 48.5365 112.149 48.1458 112.301 47.7308C112.451 47.3158 112.546 46.8927 112.582 46.4656C112.613 46.0992 112.59 45.751 112.51 45.4109C112.433 45.0728 112.295 44.7691 112.099 44.4999C111.902 44.2306 111.639 44.0181 111.315 43.8602C110.989 43.7043 110.594 43.6213 110.133 43.6193C109.688 43.6213 109.264 43.7003 108.866 43.8521C108.467 44.008 108.098 44.2205 107.764 44.4958C107.43 44.7691 107.135 45.091 106.882 45.4554C106.627 45.8218 106.424 46.2145 106.268 46.6417C106.112 47.0668 106.015 47.5081 105.975 47.9636C105.942 48.3523 105.971 48.7167 106.06 49.0527C106.149 49.3928 106.297 49.6925 106.503 49.9496C106.708 50.2087 106.973 50.4091 107.293 50.5548C107.61 50.7006 107.983 50.7775 108.412 50.7795H108.424V50.7816ZM105.208 49.4232C105.084 49.4819 104.942 49.5386 104.782 49.5973C104.622 49.656 104.44 49.7026 104.242 49.7431C104.044 49.7835 103.827 49.8018 103.59 49.8038C103.218 49.8018 102.91 49.7269 102.673 49.575C102.434 49.4252 102.26 49.2127 102.155 48.9374C102.052 48.662 102.015 48.3381 102.045 47.9636C102.072 47.6377 102.145 47.3158 102.256 46.9939C102.369 46.6721 102.521 46.3684 102.709 46.0809C102.9 45.7935 103.12 45.5384 103.375 45.3157C103.633 45.091 103.914 44.9169 104.226 44.7894C104.535 44.6618 104.871 44.5971 105.228 44.593C105.483 44.595 105.704 44.6214 105.892 44.674C106.08 44.7226 106.238 44.7833 106.368 44.8481L106.785 43.929C106.716 43.8845 106.61 43.8399 106.473 43.7934C106.333 43.7468 106.171 43.7043 105.983 43.6699C105.795 43.6375 105.596 43.6213 105.382 43.6173C104.888 43.6193 104.42 43.7023 103.979 43.8602C103.537 44.0201 103.135 44.2448 102.766 44.5282C102.398 44.8137 102.076 45.1457 101.798 45.5263C101.519 45.9028 101.296 46.3137 101.13 46.753C100.96 47.1944 100.857 47.6498 100.815 48.1195C100.784 48.4879 100.809 48.8301 100.892 49.1479C100.973 49.4657 101.112 49.7471 101.311 49.99C101.507 50.2309 101.764 50.4212 102.084 50.5589C102.404 50.6945 102.784 50.7634 103.226 50.7674C103.533 50.7654 103.817 50.7411 104.076 50.6986C104.335 50.654 104.564 50.5994 104.76 50.5326C104.959 50.4698 105.12 50.405 105.244 50.3423L105.208 49.4232ZM98.9178 50.7674C99.0959 50.7654 99.2518 50.7229 99.3935 50.6419C99.5332 50.5589 99.6465 50.4475 99.7336 50.3079C99.8206 50.1682 99.8712 50.0103 99.8895 49.8342C99.9036 49.6722 99.8814 49.5265 99.8267 49.4009C99.7741 49.2734 99.6911 49.1722 99.5777 49.0993C99.4664 49.0264 99.3267 48.988 99.1668 48.9859C98.9886 48.988 98.8327 49.0305 98.691 49.1155C98.5513 49.2005 98.438 49.3139 98.3509 49.4556C98.2639 49.5993 98.2133 49.7572 98.1951 49.9334C98.1809 50.0913 98.2031 50.233 98.2578 50.3585C98.3104 50.484 98.3914 50.5832 98.5028 50.6561C98.6141 50.7289 98.7477 50.7674 98.9036 50.7694H98.9178V50.7674ZM88.9537 50.6257L89.7959 47.5122C89.9173 47.0547 90.0772 46.6539 90.2797 46.3077C90.4801 45.9615 90.6987 45.6862 90.9376 45.4918C91.1765 45.2955 91.4133 45.1943 91.6461 45.1922C91.8121 45.1943 91.9377 45.2327 92.0267 45.3056C92.1158 45.3785 92.1745 45.4797 92.2049 45.6072C92.2332 45.7348 92.2433 45.8785 92.2271 46.0405C92.217 46.1599 92.1968 46.2874 92.1705 46.417C92.1421 46.5486 92.1097 46.6842 92.0773 46.8178L91.0368 50.6257H93.0045L93.8467 47.498C93.9782 47.0284 94.1422 46.6194 94.3406 46.2753C94.537 45.9311 94.7495 45.6639 94.9803 45.4756C95.2091 45.2874 95.4378 45.1922 95.6666 45.1902C95.8225 45.1902 95.946 45.2246 96.0431 45.2955C96.1362 45.3643 96.2031 45.4615 96.2435 45.5829C96.28 45.7064 96.2921 45.8461 96.278 46.0101C96.2658 46.1437 96.2456 46.2834 96.2152 46.4271C96.1848 46.5688 96.1484 46.7085 96.1099 46.8441L95.0998 50.6237H97.0816L98.1687 46.6053C98.1971 46.4838 98.2274 46.3502 98.2558 46.2024C98.2841 46.0566 98.3104 45.9129 98.3347 45.7732C98.359 45.6315 98.3732 45.5141 98.3813 45.4169C98.4137 45.0222 98.3732 44.6882 98.2659 44.4108C98.1566 44.1314 97.9825 43.9209 97.7436 43.7731C97.5068 43.6254 97.2112 43.5505 96.8549 43.5484C96.5533 43.5484 96.2537 43.595 95.9581 43.6922C95.6646 43.7873 95.3811 43.9331 95.1099 44.1254C94.8386 44.3217 94.5876 44.5667 94.3528 44.8643C94.3507 44.7104 94.3244 44.5546 94.2657 44.4027C94.207 44.2489 94.1199 44.1072 93.9985 43.9776C93.877 43.8501 93.7191 43.7468 93.5248 43.6679C93.3304 43.5889 93.0956 43.5505 92.8203 43.5464C92.3729 43.5444 91.9377 43.6476 91.5186 43.8561C91.0975 44.0667 90.7068 44.3906 90.3485 44.8359H90.3202L90.5429 43.7043H88.7877C88.7209 44.0161 88.644 44.3582 88.5569 44.7327C88.4679 45.1072 88.3666 45.5161 88.2452 45.9534L86.9901 50.6237H88.9537V50.6257ZM85.8442 43.7043L84.9657 46.917C84.8402 47.3765 84.6742 47.7713 84.4758 48.0993C84.2733 48.4292 84.0547 48.6823 83.8178 48.8584C83.581 49.0325 83.3441 49.1236 83.1113 49.1256C82.9413 49.1236 82.8097 49.0872 82.7145 49.0163C82.6194 48.9454 82.5526 48.8503 82.5162 48.7329C82.4817 48.6135 82.4716 48.4798 82.4838 48.3321C82.4939 48.2025 82.5161 48.0588 82.5485 47.8988C82.5809 47.7409 82.6174 47.577 82.6599 47.413L83.6782 43.7043H81.6396L80.5788 47.5689C80.51 47.8098 80.4553 48.0365 80.4128 48.2491C80.3743 48.4616 80.346 48.66 80.3298 48.8442C80.2954 49.2835 80.3359 49.6459 80.4533 49.9313C80.5707 50.2188 80.7549 50.4313 81.008 50.5731C81.263 50.7127 81.5748 50.7836 81.9493 50.7836C82.3684 50.7856 82.7895 50.6844 83.2105 50.4799C83.6336 50.2755 84.0405 49.9475 84.4353 49.4961L84.4616 49.5103L84.2409 50.6277H86.0386C86.1135 50.316 86.1985 49.9718 86.2896 49.5993C86.3827 49.2248 86.488 48.8159 86.6095 48.3766L87.8788 43.7063H85.8442V43.7043ZM75.5077 47.1437C75.6251 46.7409 75.781 46.3968 75.9794 46.1052C76.1758 45.8178 76.3944 45.5931 76.6333 45.4392C76.8762 45.2833 77.1191 45.2064 77.3681 45.2044C77.5746 45.2064 77.7406 45.259 77.8661 45.3623C77.9917 45.4635 78.0787 45.6052 78.1273 45.7813C78.1779 45.9615 78.1921 46.1639 78.1718 46.3927C78.1516 46.6356 78.0969 46.8887 78.0119 47.1498C77.9269 47.411 77.8155 47.666 77.6738 47.915C77.5361 48.162 77.3722 48.3847 77.19 48.5831C77.0058 48.7835 76.8053 48.9414 76.5908 49.0588C76.3741 49.1742 76.1454 49.2349 75.9085 49.239C75.6656 49.239 75.4854 49.1722 75.362 49.0426C75.2385 48.9131 75.1838 48.7228 75.196 48.4738C75.2 48.3321 75.2162 48.1984 75.2445 48.0709C75.2688 47.9434 75.2992 47.8239 75.3316 47.7106L75.5077 47.1437ZM75.3093 40.5766L73.3214 47.583C73.2606 47.7875 73.206 47.996 73.1594 48.2086C73.1108 48.4191 73.0784 48.6317 73.0602 48.8422C73.0076 49.4617 73.1736 49.9394 73.5562 50.2734C73.9388 50.6095 74.5401 50.7755 75.3599 50.7816C75.9835 50.7775 76.5483 50.6824 77.0564 50.4961C77.5645 50.3099 78.0159 50.0548 78.4087 49.7309C78.7994 49.407 79.1334 49.0406 79.4087 48.6296C79.684 48.2167 79.9007 47.7835 80.0585 47.328C80.2144 46.8725 80.3116 46.419 80.3501 45.9696C80.3764 45.6578 80.3622 45.3582 80.2994 45.0708C80.2407 44.7833 80.1355 44.5262 79.9857 44.2974C79.8318 44.0687 79.6314 43.8885 79.3783 43.7549C79.1253 43.6213 78.8196 43.5525 78.4593 43.5484C78.1759 43.5484 77.8985 43.5909 77.6313 43.6719C77.3621 43.7488 77.1131 43.8663 76.8762 44.012C76.6394 44.1598 76.4288 44.3379 76.2405 44.5404H76.2122L77.3661 40.5766H75.3093ZM70.5905 46.747C70.4366 47.3118 70.2524 47.7693 70.0378 48.1215C69.8252 48.4738 69.6046 48.7329 69.3738 48.8948C69.143 49.0608 68.9264 49.1398 68.7199 49.1378C68.5317 49.1357 68.3798 49.0892 68.2645 48.992C68.147 48.8948 68.0661 48.7633 68.0195 48.5912C67.975 48.4191 67.9608 48.2207 67.981 47.992C68.0033 47.7328 68.062 47.4656 68.1592 47.1943C68.2543 46.9251 68.3798 46.664 68.5357 46.4129C68.6916 46.1619 68.8697 45.9392 69.0762 45.7408C69.2787 45.5404 69.4993 45.3846 69.7382 45.2671C69.9771 45.1517 70.2281 45.093 70.4893 45.091C70.5945 45.091 70.6957 45.0991 70.7929 45.1072C70.8881 45.1194 70.9751 45.1335 71.052 45.1477L70.5905 46.747ZM71.8638 50.6257C71.876 50.4071 71.8982 50.1662 71.9347 49.8989C71.9691 49.6358 72.0116 49.3605 72.0622 49.0791C72.1108 48.7977 72.1655 48.5224 72.2262 48.2531C72.2869 47.9839 72.3476 47.7389 72.4084 47.5122L73.4347 43.8885C73.2444 43.8278 73.0278 43.7711 72.7849 43.7185C72.54 43.6658 72.2808 43.6254 72.0076 43.595C71.7363 43.5646 71.461 43.5484 71.1856 43.5484C70.5054 43.5505 69.8921 43.6456 69.3434 43.8278C68.7928 44.01 68.309 44.257 67.8899 44.5748C67.4709 44.8926 67.1126 45.257 66.8211 45.668C66.5275 46.0789 66.2988 46.5142 66.1328 46.9777C65.9688 47.4393 65.8656 47.9049 65.8271 48.3766C65.7886 48.8604 65.8433 49.2815 65.987 49.6398C66.1307 50.0002 66.3514 50.2795 66.647 50.4799C66.9445 50.6783 67.3008 50.7795 67.7179 50.7816C67.9891 50.7836 68.2665 50.737 68.5479 50.6399C68.8313 50.5427 69.1086 50.3828 69.386 50.1581C69.6613 49.9333 69.9204 49.6317 70.1674 49.2532H70.1957C70.1613 49.5001 70.1249 49.741 70.0884 49.9698C70.052 50.2006 70.0196 50.4212 69.9953 50.6257H71.8638ZM61.0961 50.6257L61.7075 48.4029L62.5334 47.666L63.5031 50.6237H65.7825L64.1995 46.5607L67.3838 43.7023H64.8635L62.918 45.8117C62.8087 45.9311 62.6974 46.0587 62.58 46.1882C62.4646 46.3198 62.3472 46.4554 62.2297 46.5891H62.2014L63.8533 40.5746H61.8289L59.0757 50.6237H61.0961V50.6257ZM57.6971 50.7674C57.8753 50.7654 58.0312 50.7229 58.1729 50.6419C58.3125 50.5589 58.4259 50.4475 58.513 50.3079C58.6 50.1682 58.6506 50.0103 58.6688 49.8342C58.683 49.6722 58.6607 49.5265 58.6061 49.4009C58.5535 49.2734 58.4705 49.1722 58.3571 49.0993C58.2457 49.0264 58.1061 48.988 57.9461 48.9859C57.768 48.988 57.6121 49.0305 57.4704 49.1155C57.3307 49.2005 57.2174 49.3139 57.1303 49.4556C57.0433 49.5993 56.9926 49.7572 56.9744 49.9334C56.9623 50.0913 56.9825 50.233 57.0372 50.3585C57.0898 50.484 57.1708 50.5832 57.2801 50.6561C57.3915 50.7289 57.5251 50.7674 57.6809 50.7694H57.6971V50.7674ZM49.3324 43.7752L49.3951 50.6257H50.4842L52.7677 46.8603C52.8892 46.6599 52.9965 46.4635 53.0977 46.2753C53.1989 46.087 53.2961 45.8947 53.3953 45.7004C53.4945 45.504 53.5998 45.2975 53.7091 45.0768H53.7374C53.7111 45.3785 53.6929 45.6801 53.6848 45.9777C53.6747 46.2773 53.6747 46.587 53.6828 46.9028L53.8225 50.6257H54.9116L58.8693 43.7752H57.6809L55.4946 47.7248C55.3286 48.0527 55.1828 48.3604 55.0553 48.6377C54.9298 48.9191 54.8104 49.1945 54.699 49.4657H54.6707C54.6889 49.239 54.7031 48.9799 54.7051 48.6843C54.7112 48.3887 54.7112 48.0567 54.7071 47.6822L54.6099 43.7752H53.5775L51.2191 47.7531C51.0207 48.0952 50.8446 48.409 50.6968 48.6985C50.545 48.988 50.4215 49.243 50.3263 49.4657H50.2838C50.3041 49.2835 50.3243 49.1074 50.3405 48.9333C50.3567 48.7592 50.3709 48.5649 50.385 48.3584C50.3972 48.1499 50.4053 47.909 50.4114 47.6276L50.4944 43.7772H49.3324V43.7752ZM39.844 43.7752L39.9068 50.6257H40.9959L43.2794 46.8603C43.4009 46.6599 43.5082 46.4635 43.6094 46.2753C43.7106 46.087 43.8078 45.8947 43.907 45.7004C44.0062 45.504 44.1115 45.2975 44.2208 45.0768H44.2491C44.2248 45.3785 44.2046 45.6801 44.1965 45.9777C44.1864 46.2773 44.1864 46.587 44.1945 46.9028L44.3341 50.6257H45.4233L49.3809 43.7752H48.1926L46.0083 47.7248C45.8423 48.0527 45.6966 48.3604 45.569 48.6377C45.4435 48.9191 45.3241 49.1945 45.2127 49.4657H45.1844C45.2026 49.239 45.2147 48.9799 45.2188 48.6843C45.2249 48.3887 45.2249 48.0567 45.2208 47.6822L45.1236 43.7752H44.0912L41.7328 47.7531C41.5344 48.0952 41.3583 48.409 41.2105 48.6985C41.0587 48.988 40.9352 49.243 40.84 49.4657H40.7975C40.8178 49.2835 40.838 49.1074 40.8542 48.9333C40.8704 48.7592 40.8846 48.5649 40.8988 48.3584C40.9109 48.1499 40.919 47.909 40.9251 47.6276L41.0081 43.7772H39.844V43.7752ZM30.3578 43.7752L30.4205 50.6257H31.5096L33.7931 46.8603C33.9146 46.6599 34.0219 46.4635 34.1231 46.2753C34.2243 46.087 34.3235 45.8947 34.4207 45.7004C34.5199 45.504 34.6252 45.2975 34.7345 45.0768H34.7628C34.7365 45.3785 34.7183 45.6801 34.7102 45.9777C34.698 46.2773 34.7001 46.587 34.7082 46.9028L34.8478 50.6257H35.937L39.8947 43.7752H38.7063L36.522 47.7248C36.356 48.0527 36.2103 48.3604 36.0827 48.6377C35.9572 48.9191 35.8378 49.1945 35.7264 49.4657H35.6981C35.7163 49.239 35.7285 48.9799 35.7325 48.6843C35.7386 48.3887 35.7386 48.0567 35.7345 47.6822L35.6374 43.7752H34.6049L32.2465 47.7531C32.0481 48.0952 31.872 48.409 31.7242 48.6985C31.5724 48.988 31.4489 49.243 31.3538 49.4657H31.3112C31.3315 49.2835 31.3517 49.1074 31.3679 48.9333C31.3841 48.7592 31.3983 48.5649 31.4104 48.3584C31.4226 48.1499 31.4327 47.909 31.4368 47.6276L31.5198 43.7772H30.3578V43.7752Z"
        fill="#175FAD" />
      <path fill-rule="evenodd" clip-rule="evenodd"
        d="M102.013 26.4967C102.388 25.5129 102.762 24.531 103.09 23.5472V23.5006C103.371 22.705 103.746 21.8163 104.167 21.1139C104.588 20.5045 105.197 19.8972 105.993 20.0835C106.789 20.2697 107.07 21.1139 107.163 21.8163C107.256 22.6119 107.21 23.4541 107.117 24.2496L106.977 26.3084C110.113 26.1222 113.204 25.7477 116.2 25.278C116.668 24.4359 117.135 23.5452 117.605 22.703C118.119 21.6726 118.728 20.6442 119.477 19.8C119.712 19.4721 120.038 19.1441 120.366 18.9113C120.834 18.5834 121.35 18.4437 121.864 18.6765C122.895 19.1441 122.66 20.5025 122.474 21.3446V21.3912L121.725 24.2011C122.988 23.8731 124.206 23.5452 125.423 23.1706C127.296 17.8809 128.747 12.4981 129.729 6.92694V6.88038L129.776 6.83382C129.915 6.27307 130.197 5.00782 129.589 4.54019C129.215 4.2588 128.605 4.30536 128.184 4.35395C127.389 4.49363 126.593 4.82158 125.984 5.24265C125.423 5.61716 124.86 6.13136 124.532 6.69414V6.7407C121.676 11.2814 118.868 15.8221 116.058 20.3628C115.356 21.4398 113.951 22.4216 112.688 21.8609C111.704 21.4398 111.424 20.4094 111.424 19.4255C111.659 15.6804 111.892 11.9818 112.127 8.28329C112.173 7.11319 111.987 5.24063 110.675 4.81955C110.113 4.58472 109.505 4.77299 108.989 5.05438C108.054 5.61514 107.351 6.59899 106.882 7.53629H106.835C103.371 13.5285 100.703 19.9883 98.4076 26.5433C99.6263 26.5433 100.843 26.5433 102.013 26.4967ZM64.7501 15.3079C64.7966 14.4658 64.9383 13.575 65.1246 12.7795C65.406 11.4211 66.2481 8.28531 68.0276 8.28531C70.135 8.23875 72.1938 8.23875 74.2546 8.19219H74.3011C77.9531 8.19219 79.2164 10.1579 77.7649 13.4819L77.7183 13.5285V13.575C77.2972 14.3706 76.7345 15.1196 76.0806 15.7755C74.1149 17.7412 71.4468 18.2109 68.73 18.1157C68.4486 18.0692 68.1693 18.0692 67.8879 18.0692C66.9992 18.0692 66.1084 17.9761 65.406 17.3667C64.8432 16.806 64.7035 16.0569 64.7501 15.3079ZM94.9904 26.4502C95.1301 25.9825 95.3184 25.5149 95.5046 25.0452C96.6747 21.6746 97.6586 18.2575 98.5938 14.8403C98.5938 14.5123 98.5938 13.7633 98.3124 13.6236C98.2193 13.5305 98.031 13.6236 97.9379 13.6236C97.4703 13.8119 97.0027 14.1844 96.6747 14.5123H96.6281C95.8791 15.2148 95.2698 16.7128 94.8953 17.6481C94.2394 19.3344 93.7717 21.0653 93.2575 22.7982C92.883 23.9683 92.5551 25.1849 92.134 26.357C93.0713 26.4036 94.0086 26.4502 94.9904 26.4502ZM82.257 25.7011C82.3501 25.5614 82.3967 25.4197 82.4453 25.2801C82.8663 24.0634 83.3805 22.8933 83.8502 21.6746C84.2247 20.7394 84.5992 19.7555 84.9272 18.7717C85.3017 17.555 85.5831 16.3383 85.8159 15.0731C85.8624 14.652 85.909 13.8564 85.4414 13.575C85.16 13.3888 84.6923 13.4819 84.3644 13.6216C83.7085 13.8564 83.1477 14.4637 82.7267 15.0731C81.51 17.2736 80.5261 19.6604 79.9168 22.0957V22.1888L79.8702 22.2354C79.4026 23.4055 78.3722 24.9966 76.8741 24.6221C76.032 24.4339 75.5158 23.7334 75.3295 22.9358L75.283 22.8893V22.8427C75.0967 21.8123 74.4408 21.0633 73.6452 20.4094L72.6148 19.5672L73.7384 18.8182C77.9046 15.9152 80.6193 12.5912 79.9168 7.20834C79.2143 4.2588 74.0177 4.2588 71.7241 4.35192H71.6775C68.1207 4.30536 64.5152 4.2588 60.9564 4.16568C60.2073 6.41275 59.4583 8.61326 58.7093 10.8138C57.4461 14.7472 56.2274 18.7251 55.199 22.705C57.2112 22.9399 59.3186 23.2192 61.3774 23.4541C61.6123 23.033 61.8916 22.6119 62.173 22.3305L62.4544 22.0491H62.8755C65.3108 22.0957 67.7441 22.1423 70.1795 22.1888H70.2726C71.9103 22.3285 73.5501 22.9844 74.2991 24.6242C74.3457 24.7173 74.3922 24.859 74.4388 24.9987C77.0624 25.2801 79.684 25.5129 82.257 25.7011ZM51.8284 22.3305C52.1098 21.5349 52.3426 20.7859 52.5774 19.9903C52.9519 18.632 53.4661 16.3849 52.6705 15.0751C52.624 14.982 52.5309 14.8889 52.4823 14.7937C52.1078 14.5123 51.7332 14.233 51.3587 14.0447C49.4862 13.0608 47.1925 13.0608 45.1803 13.4354C43.3543 13.8099 41.3886 14.5589 39.844 15.5893C39.1415 16.0569 37.7366 17.1339 37.6901 18.0712V18.1643L37.6435 18.2575C37.69 18.632 38.6273 19.053 38.9067 19.1462C39.2347 19.2393 40.1234 19.4275 40.4513 19.2858L40.4979 19.2393L40.591 19.0996C42.3704 17.1339 44.4292 15.9152 47.0974 17.1339C47.6581 17.3687 48.1278 17.7898 48.4072 18.3971C48.97 19.5207 48.6886 20.879 47.9861 21.9074C49.2534 22.0491 50.5186 22.1888 51.8284 22.3305ZM26.643 21.0653C26.8292 18.632 27.5782 16.2432 28.9831 13.9961C30.9954 10.5789 34.1332 7.9108 37.269 5.52202C37.5504 5.24063 37.8318 4.58675 37.5504 4.21022C37.269 3.78914 36.5665 4.02397 36.2386 4.16365C33.8984 5.38031 31.6513 6.69211 29.5439 8.19016C26.9223 9.9696 24.5356 12.0284 22.2885 14.2755C21.7257 14.8362 21.0253 15.3525 20.2762 15.5873C19.5738 15.8221 18.8248 15.727 18.264 15.2593C17.515 14.65 17.4219 13.573 17.7012 12.6843V12.5912C18.4502 10.5304 19.0596 8.42499 19.4807 6.27104C19.5738 5.80341 19.6669 5.19407 19.5272 4.72643C19.4807 4.63331 19.3875 4.4916 19.2924 4.44504C19.1527 4.39848 18.9179 4.4916 18.7782 4.58472C18.3571 4.81955 17.9826 5.28719 17.7478 5.75482C14.9865 10.5304 12.786 15.6804 10.8669 20.8284C10.3061 22.4196 9.74335 24.0128 9.18057 25.604C13.7699 22.7516 19.7621 21.4398 26.643 21.0653ZM133.753 19.9417C135.719 15.4942 137.405 10.9069 138.903 6.36619C139.09 5.89855 139.138 5.24265 138.717 4.86814C138.343 4.49363 137.687 4.44706 137.219 4.54019C136.658 4.63331 136.096 4.96126 135.814 5.52404V5.5706C135.112 6.78726 134.551 8.14562 134.035 9.4554C133.379 11.1417 132.818 12.8726 132.302 14.652C131.646 16.8991 131.039 19.1462 130.429 21.3932C131.553 20.9722 132.676 20.458 133.753 19.9417Z"
        fill="#097BBB" />
      <path fill-rule="evenodd" clip-rule="evenodd"
        d="M145.831 28.3698C144.333 26.7786 139.183 23.2197 137.078 23.1266C131.6 22.9869 139.746 29.2585 140.402 30.2423C142.274 32.1615 130.946 33.8943 131.132 38.2002C131.132 38.8561 131.507 39.0424 132.162 38.8096C134.456 37.9208 138.622 35.6738 140.167 34.9248C142.274 33.8478 148.594 31.2728 145.831 28.3698ZM154.352 28.7909C152.947 27.2928 148.171 23.9688 146.252 23.9222C141.197 23.7825 148.734 29.5864 149.341 30.4772C151.028 32.2566 140.588 33.8943 140.728 37.8743C140.774 38.4371 141.102 38.6233 141.711 38.3885C143.819 37.5929 147.704 35.5321 149.109 34.783C151.074 33.8478 156.927 31.459 154.352 28.7909Z"
        fill="#F05223" />
      <path fill-rule="evenodd" clip-rule="evenodd"
        d="M135.954 24.0616C135.954 24.2965 136.328 24.8572 136.468 24.9969C136.889 25.6528 137.498 26.2601 138.013 26.8229C138.622 27.4322 139.229 27.993 139.885 28.6023C140.213 28.8837 140.727 29.3514 141.009 29.7724C141.244 30.0073 141.383 30.3332 141.383 30.6611C141.383 30.7077 141.383 30.7077 141.383 30.7543C141.665 30.6611 141.897 30.6146 142.179 30.568C143.395 30.2866 144.566 30.0538 145.738 29.8656C145.738 29.4911 145.503 29.1631 145.27 28.9303C143.958 27.5254 138.903 23.9685 137.077 23.922C136.889 23.922 136.187 23.922 135.954 24.0616Z"
        fill="#F26B21" />
      <path fill-rule="evenodd" clip-rule="evenodd"
        d="M145.317 24.8108C145.363 25.3715 146.815 26.9182 147.189 27.2927C147.752 27.8534 148.313 28.3697 148.876 28.9304C149.016 29.0701 149.204 29.2118 149.439 29.3981C150.937 29.3049 152.388 29.2584 153.744 29.2584C152.481 27.9952 147.941 24.7642 146.254 24.7177C146.066 24.6711 145.503 24.7177 145.317 24.8108Z"
        fill="#F26B21" />
    </g>
  </g>
</svg>